PathFileType	4	(X/Y/Z)	Patient4_TMGait_0pt3_02_right_08.trc.trc
DataRate	CameraRate	NumFrames	NumMarkers	Units	OrigDataRate	OrigDataStartFrame	OrigNumFrames
50.359712230216	50.359712230216	7	33	mm	50.359712230216	36	       141
Frame#	Time	Sacral			L.Shoulder			Chest			R.Shoulder			Neck			R.ASIS			L.ASIS			R.Thigh.Superior			R.Thigh.Lateral			R.Thigh.Inferior			R.Patella			L.Thigh.Superior			L.Thigh.Lateral			L.Thigh.Inferior			L.Patella			L.Shank.Superior			L.Shank.Lateral			L.Shank.Inferior			R.Shank.Superior			R.Shank.Lateral			R.Shank.Inferior			R.Heel			R.Midfoot.Superior			R.Midfoot.Lateral			R.Toe			L.Heel			L.Midfoot.Lateral			L.Midfoot.Superior			L.Toe			L.Elbow			L.Wrist			R.Elbow			R.Wrist			
		X1	Y1	Z1	X2	Y2	Z2	X3	Y3	Z3	X4	Y4	Z4	X5	Y5	Z5	X6	Y6	Z6	X7	Y7	Z7	X8	Y8	Z8	X9	Y9	Z9	X10	Y10	Z10	X11	Y11	Z11	X12	Y12	Z12	X13	Y13	Z13	X14	Y14	Z14	X15	Y15	Z15	X16	Y16	Z16	X17	Y17	Z17	X18	Y18	Z18	X19	Y19	Z19	X20	Y20	Z20	X21	Y21	Z21	X22	Y22	Z22	X23	Y23	Z23	X24	Y24	Z24	X25	Y25	Z25	X26	Y26	Z26	X27	Y27	Z27	X28	Y28	Z28	X29	Y29	Z29	X30	Y30	Z30	X31	Y31	Z31	X32	Y32	Z32	X33	Y33	Z33	

36	15.235000000000	707.135413447724	1004.635471081802	506.013468482098	925.623875570053	1429.387370678938	353.193476451629	993.865538830120	1357.646632479766	530.165505834557	882.801269880092	1434.779231320606	686.109967172902	879.832619085230	1491.289643754972	507.417133859035	921.937813788123	939.676038698766	650.604325150753	937.977478936791	953.311304321848	376.659247360047	982.955716236384	749.893631806148	617.938910359333	913.629626365211	631.770985138194	675.032689266947	999.253444001644	588.351967732111	597.005894123095	1011.590830329428	499.383882849281	605.263548619273	928.599004482417	722.369110958164	398.892541135026	810.807480527807	630.935802384243	330.217252792379	868.300233340876	533.799237455880	392.080764578516	849.211695780606	462.941759849437	397.247755112837	799.807071994747	403.673369954891	386.944720898609	678.583789426680	323.391594079638	333.138314099906	694.714233673851	197.626368628845	397.552054657637	985.064310335809	409.005734336496	610.546709957430	916.644326388426	303.559033572856	672.314380085624	961.598357581915	209.283885105302	610.579730348106	830.411603210409	44.232311251563	584.590349509778	1002.856962877341	97.723121341514	616.968784299195	915.113326085328	37.616504053788	657.081914932446	1123.175941862984	43.018538934761	642.571956684014	529.586544160221	69.222634507035	432.357774773267	605.429646445607	50.503737061819	356.970243820670	696.484159689267	100.355675333357	383.913412868211	814.622326603322	37.146827269858	363.947644876361	1041.540955764411	1126.248427581058	195.717136063076	1300.703823880587	1119.570513149436	205.627578219962	728.043306760100	1121.267155409258	774.136311254431	703.612822372711	862.034451485421	799.825841101505	
37	15.254857142857	708.709238995670	1006.070268285630	512.115935002090	927.022279072175	1429.829839028860	356.807162787671	996.678265746088	1358.095081523514	533.281887385150	887.221332837804	1435.778870375840	689.980540683982	882.574679770166	1492.191205753810	511.066410882383	924.359408966302	940.087258255381	654.917919488626	938.222267753404	954.000263569189	380.856118606689	983.288642700094	749.310056348384	621.972626624292	912.494720792646	631.737393345710	678.500363091297	997.534176161527	587.704926772170	600.280901081317	1008.830227230246	498.687995523436	607.954260619181	929.701525627263	723.375259542344	401.922296777492	812.285468688833	631.721179717985	333.285713474282	871.327666853065	534.192311762408	393.832735637176	852.491869754072	462.396257639641	397.916106764464	801.171245996141	404.256555974472	387.868603889375	677.818288669260	326.769779560251	334.693829631315	692.758484378709	199.900602741521	397.449896704034	981.761647766214	408.549661705042	612.628324832638	912.646981491834	303.211835436532	673.683596131597	956.880727739114	208.997443808658	611.332350118261	824.739269308956	44.279037111725	584.582737303840	997.147468796664	97.810312042496	617.172159252350	909.405811209690	37.651415468431	657.053892115756	1117.483767680547	42.772325624789	642.810630239023	525.276619415414	74.708502751512	432.080431939716	600.476393511188	53.431869762177	356.809118517857	692.894880973110	101.251131256231	383.177048087210	808.871588402371	36.859586780038	363.967375125406	1038.289144901791	1123.291257644296	201.061962428843	1297.570190311696	1111.144559614980	209.813372305862	733.813649986042	1122.195798697603	781.513780176139	710.630453564721	863.042884609755	808.650002146662	
38	15.274714285714	710.080885668968	1007.307566882055	518.126643763278	927.936450013751	1430.180132782398	360.224622404562	999.120034094996	1358.517024673236	536.163702962523	891.293471426181	1436.700002347986	693.635358751045	884.939444333847	1493.010349114286	514.519650740542	926.612095753899	940.404160344280	659.125790255692	938.267118379625	954.653450398698	384.985740567199	983.457043776691	748.618171259882	625.952227922319	911.157531814301	631.623854928695	681.903715092085	995.621590519828	586.981816492050	603.526629495000	1005.803881939238	497.957122550732	610.635450748555	931.335496621486	724.436451035170	404.945613180894	814.772075187953	632.161335164929	336.329133133970	875.633617565301	534.455628784482	395.723744820289	857.127421363978	461.569414334070	398.657457076322	803.758157757854	404.593897275837	388.909708723933	678.238246123167	330.271533364658	336.258561744496	691.509380726398	202.407358633936	397.460194417420	978.233240348049	408.055725562128	614.736014282481	908.416614182615	302.818524999785	675.052694161063	952.042271150300	208.695131445053	612.128660760488	819.020521371289	44.316677231556	584.560819132917	991.401355077676	97.855044453245	617.362370092635	903.643534263493	37.672112686290	657.025678036146	1111.730085328987	42.536388538859	643.043243017532	521.389401518557	81.186216102144	431.802282985767	595.755781387189	57.125038840506	356.647633188203	689.634816884880	102.449694628880	382.495805188761	803.047132220125	36.443035040403	364.012035778320	1033.968646539692	1119.938841756654	206.459299595331	1293.205862993660	1100.884483208134	214.090578624925	740.080275078610	1122.660678190732	788.932391533579	718.740686904657	863.566318746598	817.739247172559	
39	15.294571428571	711.221588912166	1008.312713661363	524.022364990420	928.319987109208	1430.421353430670	363.437193931780	1001.132772178485	1358.897289237473	538.802297031269	894.946939087489	1437.508204756640	697.068796997255	886.865586688227	1493.715582906781	517.775188714393	928.699018276855	940.625693410782	663.182453996129	938.088065967774	955.244587516242	389.014544600713	983.517294800379	747.844769013973	629.782354334380	909.743966395824	631.436902472664	685.190515718579	993.616662741604	586.200213443839	606.650524881942	1002.643762010084	497.185251461795	613.221403602955	933.576792590138	725.554565454301	407.967806497635	818.413616052229	632.228940008646	339.354389329475	881.370129372519	534.604246980988	397.809750763336	863.282216800038	460.483610901218	399.557925393618	807.744934893307	404.665822156164	390.134376004660	680.052954542062	333.935633354092	337.846186562330	691.073615413756	205.223055612330	397.621738599612	974.580874273651	407.514436710571	616.801005332066	904.058080403028	302.389773703899	676.396085240099	947.122945855389	208.365648122716	612.928253063947	813.237208206684	44.343839818091	584.532975485442	985.609628204328	97.853531243674	617.527369978397	897.812434421899	37.680477511706	657.004023489652	1105.907306830328	42.302739577844	643.259349001627	518.056705179759	88.886319906302	431.552966873411	591.363116911208	61.812355453209	356.509738787208	686.765709195082	104.096197622342	381.915783445964	797.143444566883	35.870086186311	364.078944338335	1028.569325784562	1116.230154953182	211.908003380201	1287.428119489513	1088.678231274705	218.475036312203	746.907065790092	1122.568568904727	796.302186375723	728.184077370251	863.508324249756	826.986843838105	
40	15.314428571429	712.103559618689	1009.057443096926	529.786998311144	928.137414330761	1430.534998349502	366.432378249209	1002.671325830057	1359.215463654580	541.184024310240	898.134495806344	1438.170702051422	700.272824549663	888.306023366802	1494.276111949517	520.828264524126	930.623300586036	940.754542978332	667.047265775187	937.658889977318	955.743461043847	392.908563196719	983.521433067778	747.014670755562	633.382622705791	908.368579387866	631.176405926473	688.312549841421	991.613844672583	585.374714724896	609.566525047021	999.481740980716	496.362779874084	615.628228210783	936.475840720715	726.748432026054	411.011852728314	823.319576863053	631.931052324058	342.377467324488	888.635656736069	534.684821587325	400.152190463298	871.070622882369	459.200173720331	400.712350937937	813.266101082319	404.483645746760	391.607074089119	683.431934267628	337.812913188573	339.485386804299	691.550067976984	208.432542665378	397.974961905430	970.904682332944	406.915306847700	618.754019024567	899.675600658672	301.933490078657	677.684266793973	942.165094318784	207.999625610505	613.690171732681	807.384235014269	44.356931138091	584.507548548345	979.770220554836	97.811278310724	617.661282051251	891.911635049540	37.677813837706	656.995402775398	1100.017444577705	42.076824809912	643.452105892934	515.431962292414	98.003977594130	431.380188310856	587.420376541940	67.706784630933	356.430728731413	684.366477220652	106.343341137282	381.485943617713	791.184347554416	35.138176675329	364.163131033628	1022.126929306016	1112.214916808235	217.405043300177	1280.042823466805	1074.443982173427	222.986385404548	754.343589363040	1121.862483409513	803.533091407623	739.180106492777	862.820817744275	836.269175424720	
41	15.334285714286	712.702765967210	1009.518278567609	535.409947595209	927.366862119893	1430.498750669852	369.193872404019	1003.705607716982	1359.444955678360	543.290944428761	900.833187130650	1438.656579957184	703.236082864137	889.230980458499	1494.661719232160	523.669668766225	932.385874285819	940.793655985967	670.687146021959	936.954660000915	956.117071935010	396.634707745908	983.517303214427	746.148777134703	636.691554023822	907.132088451271	630.833500246457	691.225649348253	989.702887523068	584.515540788248	612.200255624081	996.448162011466	495.475736027293	617.779581663789	940.047479845728	728.052795250125	414.117919218223	829.544158591010	631.311596849065	345.422621152960	897.454616758481	534.775075840964	402.813567406754	880.536635992093	457.818029740503	402.215637873597	820.394002215592	404.092899509705	393.383512302821	688.481092210560	341.957529460391	341.221624422814	693.025267839683	212.115099157168	398.561695715924	967.302632423121	406.245241391004	620.530022179506	895.368636144189	301.453851024633	678.885737262479	937.211885110458	207.588410497245	614.375732476923	801.465932307219	44.352397568881	584.491481516422	973.886514279746	97.738988232525	617.762896713202	885.949193139361	37.665250406635	657.004926981181	1094.068898934757	41.870706667639	643.617649622289	513.682673269895	108.651840731521	431.351061203520	584.076482841168	74.965985460813	356.457808466967	682.536798807141	109.329363351577	381.255721434258	785.240948673759	34.279766801671	364.256105549494	1014.719212752435	1107.945107799236	222.945935967665	1270.844083612598	1058.150845459935	227.644859992473	762.424606465552	1120.521617005704	810.538553435597	751.921928653317	861.509396266089	845.447204651629	
42	15.354142857143	713.002596005371	1009.675502785380	540.884698643572	926.002087906057	1430.285416210755	371.702955023788	1004.222192949763	1359.553847350580	545.102868335315	903.043248789431	1438.937715713459	705.944385481718	889.629869263790	1494.843227386634	526.285779167728	933.985072069162	940.743105724799	674.077988674259	935.955647959521	956.331996157043	400.161512220285	983.549007128102	745.262168771740	639.667997702686	906.120676412362	630.390462016725	693.890174795800	987.970640968073	583.627652766096	614.493025128292	993.670172490510	494.506017808180	619.611666652426	944.260995899729	729.513431132064	417.337313704644	837.068954980215	630.449345709632	348.519386660049	907.761055772086	534.978373920442	405.850203850518	891.636901591500	456.466810334026	404.151600022430	829.122865015980	403.572244557177	395.504219219559	695.223120216474	346.414137419567	343.115510016031	695.569670900829	216.325613450312	399.423677056099	963.870166280397	405.487922038487	622.072414003616	891.228935823925	300.951195974617	679.969548312016	932.305934470221	207.123349644284	614.951312321405	795.492430620192	44.328499708621	584.489781660875	967.965715481789	97.649079809015	617.834409558513	879.938109254585	37.643971776302	657.035546524008	1088.073569154674	41.697335482267	643.754474209170	512.979550628256	120.810739931507	431.549812965069	581.505285404806	83.649219385511	356.648364935432	681.399940036599	113.150793832482	381.271928971482	779.451291360872	33.369544390187	364.344349780750	1006.456045263022	1103.466985371796	228.526026389595	1259.616402477023	1039.839728619676	232.467839074105	771.169764251436	1118.559866400379	817.238347923176	766.572457971508	859.637749727184	854.369023450662	
